<?xml version="1.0" encoding="UTF-8" standalone="no"?>
<svg
   xmlns:dc="http://purl.org/dc/elements/1.1/"
   xmlns:cc="http://creativecommons.org/ns#"
   xmlns:rdf="http://www.w3.org/1999/02/22-rdf-syntax-ns#"
   xmlns:svg="http://www.w3.org/2000/svg"
   xmlns="http://www.w3.org/2000/svg"
   viewBox="0 0 290.93332 70.32"
   height="70.32"
   width="290.93332"
   xml:space="preserve"
   id="svg2"
   version="1.1"><metadata
     id="metadata8"><rdf:RDF><cc:Work
         rdf:about=""><dc:format>image/svg+xml</dc:format><dc:type
           rdf:resource="http://purl.org/dc/dcmitype/StillImage" /></cc:Work></rdf:RDF></metadata><defs
     id="defs6" /><g
     transform="matrix(1.3333333,0,0,-1.3333333,0,70.32)"
     id="g10"><g
       transform="scale(0.1)"
       id="g12"><path
         id="path14"
         style="fill:#ffffff;fill-opacity:1;fill-rule:nonzero;stroke:none"
         d="m 313.945,113.551 v 186.504 h 39.168 V 113.551 h -39.168" /><path
         id="path16"
         style="fill:#ffffff;fill-opacity:1;fill-rule:nonzero;stroke:none"
         d="m 102.48,113.551 v 186.504 h 37.922 V 113.551 H 102.48" /><path
         id="path18"
         style="fill:#ffffff;fill-opacity:1;fill-rule:nonzero;stroke:none"
         d="m 153.449,113.551 v 186.504 h 40.438 V 113.551 h -40.438" /><path
         id="path20"
         style="fill:#ffffff;fill-opacity:1;fill-rule:nonzero;stroke:none"
         d="m 206.957,113.551 v 186.504 h 40.434 V 113.551 h -40.434" /><path
         id="path22"
         style="fill:#ffffff;fill-opacity:1;fill-rule:nonzero;stroke:none"
         d="M 300.875,300.055 V 113.551 h -40.434 v 186.504 h 40.434" /><path
         id="path24"
         style="fill:#ffffff;fill-opacity:1;fill-rule:nonzero;stroke:none"
         d="M 336.281,313.234 H 118.453 l 111.805,68.789 z" /><path
         id="path26"
         style="fill:#ffffff;fill-opacity:1;fill-rule:nonzero;stroke:none"
         d="M 93.3672,313.234 H 0.046875 v 69.5 H 206.332 l -112.9648,-69.5" /><path
         id="path28"
         style="fill:#ffffff;fill-opacity:1;fill-rule:nonzero;stroke:none"
         d="m 253.324,382.734 h 200.977 v -69.5 h -93.879 l -107.098,69.5" /><path
         id="path30"
         style="fill:#ffffff;fill-opacity:1;fill-rule:nonzero;stroke:none"
         d="M 425.539,395.91 H 28.8125 c 38.8438,70.082 113.1175,117.438 198.3515,117.438 85.234,0 159.508,-47.356 198.375,-117.438" /><path
         id="path32"
         style="fill:#ffffff;fill-opacity:1;fill-rule:evenodd;stroke:none"
         d="M 0.046875,267.844 V 278.68 L 2.66406,276.781 0.765625,270.965 Z M 77.3477,113.551 H 59.7695 l 8.7891,6.387 z m 12.0859,0 H 77.4219 l -3.3711,10.375 8.8828,6.457 H 71.9531 l -3.3945,10.445 -3.3945,-10.445 H 54.1836 l 8.9023,-6.457 -3.3906,-10.375 H 0.046875 L 0,226.012 l 0.046875,40.547 8.335935,6.054 8.88279,-6.453 -3.3906,10.445 8.8828,6.454 H 11.7773 L 8.38281,293.504 6.83594,288.742 4.69531,283.059 H 0.046875 v 16.996 H 89.4336 Z M 0,226.012 l 8.90234,-6.457 -3.41015,-10.446 8.88281,6.457 8.8867,-6.457 -3.3945,10.446 8.8867,6.457 H 17.7695 l -3.3945,10.445 -3.3906,-10.445 z m 30.6055,-59.301 -3.4102,-10.445 8.8828,6.457 8.8867,-6.457 -3.3945,10.449 8.8867,6.453 H 39.4727 l -3.3946,10.445 -3.3906,-10.445 H 21.7031 l 8.9024,-6.457" /><path
         id="path34"
         style="fill:#ffffff;fill-opacity:1;fill-rule:evenodd;stroke:none"
         d="M 89.4336,100.375 V 50.8633 H 0.046875 V 100.375 H 89.4336" /><path
         id="path36"
         style="fill:#ffffff;fill-opacity:1;fill-rule:evenodd;stroke:none"
         d="m 366.164,100.375 h 88.137 V 50.8633 h -88.137 v 49.5117" /><path
         id="path38"
         style="fill:#ffffff;fill-opacity:1;fill-rule:evenodd;stroke:none"
         d="m 232.59,50.8633 h -10.051 l 5,3.6328 z m -67.668,14.5547 -3.41,-10.4453 8.883,6.4531 8.882,-6.4531 -3.39,10.4453 8.883,6.4531 H 173.789 L 170.395,82.3164 167,71.8711 h -10.984 z m 57.144,-6.9336 -2.492,-7.6211 H 102.48 v 49.5117 h 14.442 l -2.516,-7.75 h -10.984 l 8.902,-6.4531 -3.41,-10.4453 8.887,6.4531 8.883,-6.4531 -3.391,10.4453 8.883,6.4531 h -10.981 l -2.519,7.75 h 217.597 l -2.515,-7.75 h -10.985 l 8.887,-6.4531 -3.394,-10.4453 8.886,6.4531 8.883,-6.4531 -3.41,10.4453 8.902,6.4531 h -10.98 l -2.52,7.75 h 15.086 V 50.8633 H 235.508 l -2.477,7.6211 8.883,6.457 h -10.98 l -3.395,10.4453 -3.394,-10.4453 H 213.16 Z m 66.372,6.9336 8.902,6.4531 h -10.981 l -3.394,10.4453 -3.395,-10.4453 h -10.98 l 8.883,-6.4531 -3.395,-10.4453 8.887,6.4531 8.883,-6.4531 -3.41,10.4453" /><path
         id="path40"
         style="fill:#ffffff;fill-opacity:1;fill-rule:evenodd;stroke:none"
         d="m 454.301,278.242 v -8.551 l -2.258,6.914 z m 0,-164.691 h -59.047 -17.649 -11.441 v 186.504 h 88.137 v -16.996 h -4.336 l -3.395,10.445 -3.394,-10.445 h -10.985 l 8.887,-6.454 -3.394,-10.445 8.886,6.453 7.731,-5.617 v -40.984 h -10.332 l -3.395,10.445 -3.39,-10.445 h -10.985 l 8.887,-6.457 -3.395,-10.446 8.883,6.457 8.887,-6.457 -3.41,10.446 8.25,5.984 z m -59.047,0 -3.387,10.375 8.903,6.457 h -10.985 l -3.39,10.445 L 383,130.383 h -10.984 l 8.886,-6.457 -3.371,-10.375 8.864,6.387 8.789,-6.387 z m 29.094,53.16 8.902,6.457 h -10.984 l -3.395,10.445 -3.394,-10.445 h -10.981 l 8.887,-6.453 -3.395,-10.449 8.883,6.457 8.887,-6.457 -3.41,10.445" /><path
         id="path42"
         style="fill:#ffffff;fill-opacity:1;fill-rule:evenodd;stroke:none"
         d="m 634.324,260.352 c 32,0 54.438,8.461 69.153,22.07 20.597,17.656 28.687,40.828 30.894,70.988 1.106,14.348 1.84,78.715 1.84,83.867 0,5.149 0,57.379 0.734,61.059 1.106,4.414 2.207,14.711 15.817,14.711 h 15.082 c 1.84,0 2.207,1.473 2.207,3.68 v 8.089 c 0,1.106 -0.367,2.579 -3.68,2.579 -3.308,-0.004 -15.082,-1.106 -40.461,-1.106 -24.644,0 -41.562,1.102 -45.242,1.102 -2.207,0.004 -2.574,-0.735 -2.574,-2.575 v -8.828 c 0,-1.836 0.367,-2.941 2.574,-2.941 h 16.187 c 9.563,0 15.446,-6.621 16.551,-16.184 1.106,-9.195 1.84,-30.527 1.84,-58.484 v -78.715 c 0,-27.219 -4.781,-49.289 -19.129,-64.738 -12.875,-13.242 -34.207,-20.231 -55.172,-20.231 -21.336,0 -44.875,6.621 -58.484,26.485 -8.461,12.508 -11.402,29.793 -11.773,46.715 -0.368,11.769 -1.836,58.484 -1.836,77.976 v 24.277 c 0,18.762 0.367,44.508 0.734,47.821 0.734,8.09 6.988,15.078 17.656,15.078 h 18.391 c 2.574,0 2.941,0.734 2.941,2.574 v 9.563 c 0,1.472 -0.367,2.211 -3.308,2.211 -4.047,-0.004 -21.703,-1.106 -50.395,-1.106 -28.687,0 -46.711,1.102 -50.391,1.102 -2.941,0.004 -3.308,-0.735 -3.308,-2.942 v -8.09 c 0,-2.578 0.367,-3.312 2.574,-3.312 h 17.285 c 11.407,0 13.981,-5.883 13.981,-18.758 v -87.543 c 0,-48.183 1.468,-72.828 5.883,-89.383 5.886,-23.172 18.761,-39.355 43.773,-49.289 12.137,-5.148 30.527,-7.722 49.656,-7.722" /><path
         id="path44"
         style="fill:#ffffff;fill-opacity:1;fill-rule:evenodd;stroke:none"
         d="m 936.324,387.176 c 0,16.383 -0.801,41.558 1.199,59.941 0.797,5.598 2.797,8.395 12.79,8.395 h 3.996 c 1.597,0 2.398,1.199 2.398,2.797 v 8.39 c 0,2.399 -0.801,3.199 -2.801,3.199 -2.797,0 -16.781,-1.199 -25.176,-1.199 -12.789,0 -29.972,1.199 -32.769,1.199 -1.996,0 -2.797,-0.8 -2.797,-2 v -9.589 c 0,-1.996 0.801,-2.797 2.797,-2.797 h 6.793 c 6.797,0 12.789,-2.399 14.785,-7.192 2,-4.797 3.199,-27.976 3.199,-37.566 0.801,-12.789 1.2,-25.18 1.2,-47.957 v -26.375 h -1.598 c -4.797,5.191 -41.961,51.949 -49.156,60.344 -8.391,9.992 -54.352,67.937 -55.547,69.535 -1.602,2.398 -3.996,3.199 -9.594,3.199 -4.793,0 -13.188,-0.801 -19.582,-0.801 -4.395,0 -10.789,0.399 -15.984,0.801 -5.196,0 -9.59,0.398 -10.391,0.398 -1.598,0 -2.398,-1.199 -2.398,-2.398 v -9.59 c 0,-1.597 0.8,-2.398 2.398,-2.398 h 3.598 c 11.187,0 21.179,-6.793 21.179,-21.18 v -41.965 c 0,-45.156 -0.8,-73.531 -1.199,-78.324 -1.199,-9.195 -7.594,-11.992 -11.59,-11.992 h -9.191 c -1.199,0 -1.598,-0.399 -1.598,-1.199 v -10.391 c 0,-1.996 0.399,-2.797 1.199,-2.797 3.196,0 21.18,1.199 26.774,1.199 11.59,0 27.574,-1.199 30.375,-1.199 1.996,0 1.996,0.801 1.996,2.399 v 9.589 c 0,1.602 0,2.399 -1.996,2.399 h -8.395 c -3.996,0 -8.39,4.398 -9.59,13.59 -0.8,3.593 -2.398,43.558 -2.398,67.539 v 54.746 h 0.801 c 6.39,-7.192 38.762,-50.352 48.355,-61.543 4.395,-5.195 21.578,-25.574 39.961,-47.555 16.387,-19.582 29.973,-35.969 32.774,-38.765 1.597,-1.2 5.593,-3.997 9.187,-3.997 4.797,0 5.996,3.997 5.996,7.594 v 93.516" /><path
         id="path46"
         style="fill:#ffffff;fill-opacity:1;fill-rule:evenodd;stroke:none"
         d="m 1031.22,391.172 c 0,2.797 0.4,50.351 0.4,54.348 0.4,8.394 4,9.992 14.79,9.992 h 6.79 c 2,0 2.4,1.199 2.4,2.797 v 9.589 c 0,1.2 -0.8,2 -2.4,2 -3.2,0 -23.58,-1.199 -35.17,-1.199 -18.784,-0.398 -43.557,1.199 -45.956,1.199 -1.597,0 -2.398,-0.8 -2.398,-2.398 v -9.191 c 0,-1.598 0.398,-2.797 2.398,-2.797 h 7.192 c 16.785,0 20.382,-3.996 20.382,-8.395 0,-5.594 0.802,-45.558 0.802,-51.949 v -17.586 c 0,-13.586 -0.4,-64.34 -0.802,-67.937 -0.8,-7.192 -7.195,-7.594 -17.183,-7.594 h -8.793 c -1.598,0 -2.399,-1.199 -2.399,-2.399 v -8.789 c 0,-2 0.801,-3.199 2.399,-3.199 2.398,0 25.574,1.199 39.168,1.199 17.98,0 38.76,-1.199 41.96,-1.199 2,0 2.4,1.199 2.4,2.797 v 9.594 c 0,1.199 -0.4,1.996 -2.4,1.996 h -6 c -11.59,0 -16.38,5.597 -17.18,14.789 -0.4,5.992 -0.4,51.953 -0.4,54.348 v 19.984" /><path
         id="path48"
         style="fill:#ffffff;fill-opacity:1;fill-rule:evenodd;stroke:none"
         d="m 1466.74,448.32 c 0,7.192 6,8.789 11.99,8.789 15.99,0 27.18,-3.597 37.97,-10.39 7.19,-4.793 13.18,-15.586 13.18,-27.574 0,-10.391 -6.79,-41.563 -51.15,-41.563 -5.19,0 -9.19,0.398 -11.99,0.801 z m -30.37,-68.34 c -0.4,-24.378 0,-47.957 -0.4,-67.539 0,-8.793 -4.8,-10.39 -14.39,-10.39 h -4.79 c -1.6,0 -2.4,-0.797 -2.4,-1.996 v -9.192 c 0,-2 0.8,-3.199 2.4,-3.199 2.79,0 23.18,1.199 33.17,1.199 13.19,0 34.77,-1.199 37.56,-1.199 2.4,0 3.2,0.801 3.2,2.797 v 9.594 c 0,1.199 -0.8,1.996 -2.4,1.996 h -10.39 c -7.99,0 -10.39,4.398 -11.19,9.992 v 43.16 9.59 c 2.8,0.801 6.4,0.801 10.39,0.801 16.79,0 22.78,-8.793 37.17,-33.571 3.59,-5.992 21.18,-38.363 28.77,-43.957 6.8,0.399 16.39,0.797 25.58,0.797 3.99,0 8.79,-0.398 12.39,-0.398 3.99,-0.399 7.19,-0.801 7.99,-0.801 1.6,0 2.4,1.199 2.4,2.797 v 7.992 c 0,2.399 -0.4,3.598 -2,3.598 -7.19,0 -12.39,0.402 -17.98,4.398 -7.6,5.594 -16.79,17.582 -22.38,25.574 -16.39,23.18 -24.38,35.571 -33.57,37.567 v 0.801 c 31.57,11.187 47.15,27.175 47.15,54.75 0,9.191 -5.19,20.777 -13.98,29.172 -9.99,8.792 -27.98,15.585 -51.96,15.585 -5.19,0 -39.96,-1.199 -44.75,-1.199 -7.2,0 -31.98,1.199 -33.97,1.199 -1.6,0 -2.4,-0.8 -2.4,-2 v -9.589 c 0,-1.598 0.4,-2.797 1.6,-2.797 h 3.99 c 11.19,0 14.79,-4.395 15.19,-12.391 V 404.758 379.98" /><path
         id="path50"
         style="fill:#ffffff;fill-opacity:1;fill-rule:evenodd;stroke:none"
         d="m 1659.11,284.066 c 36.36,0 55.54,25.579 55.54,55.551 0,19.981 -4.79,29.973 -12.78,38.363 -9.99,10.391 -24.78,14.79 -43.16,21.583 -7.6,2.796 -21.98,8.792 -27.98,16.382 -4.4,5.2 -6.39,13.59 -6.39,19.586 0,7.192 6.39,24.375 28.37,24.375 11.59,0 20.38,-3.996 26.38,-10.789 8.39,-9.59 11.59,-23.578 13.98,-28.375 0.4,-1.195 1.2,-1.996 2.4,-1.597 l 7.2,1.597 c 1.19,0.403 1.59,1.199 1.59,2.399 -0.4,5.593 -3.99,31.57 -3.99,44.757 0,2 -0.4,3.598 -3.6,3.598 -3.2,0 -4.39,0 -5.19,-1.199 l -1.6,-2.797 c -0.8,-1.996 -2.8,-1.598 -6.8,0.801 -4.79,2.398 -13.18,5.195 -28.37,5.195 -14.39,0 -27.18,-3.598 -37.57,-11.988 -8.79,-7.594 -17.18,-19.985 -17.18,-33.57 0,-19.583 4.8,-32.372 13.99,-41.165 11.99,-10.789 31.17,-17.98 39.16,-20.781 21.18,-7.992 36.77,-17.98 36.77,-40.762 0,-17.183 -19.18,-27.175 -31.97,-27.175 -14.79,0 -27.98,7.992 -33.97,19.98 -7.2,13.192 -7.2,21.582 -7.2,27.176 0,1.602 -1.59,2.398 -3.19,2.801 l -7.2,0.797 c -1.59,0 -2.39,-1.2 -2.79,-2.797 -0.4,-6.395 -3.2,-38.364 -4.4,-49.555 -0.4,-1.996 0.8,-3.598 3.2,-4.394 3.19,-0.801 5.19,0 5.99,1.996 l 1.2,3.199 c 0.8,3.195 3.2,2.797 6,0.797 9.19,-7.192 23.17,-13.989 43.56,-13.989" /><path
         id="path52"
         style="fill:#ffffff;fill-opacity:1;fill-rule:evenodd;stroke:none"
         d="m 1782.35,391.172 c 0,2.797 0.4,50.351 0.4,54.348 0.4,8.394 4,9.992 14.79,9.992 h 6.79 c 2,0 2.4,1.199 2.4,2.797 v 9.589 c 0,1.2 -0.8,2 -2.4,2 -3.2,0 -23.58,-1.199 -35.17,-1.199 -18.78,-0.398 -43.56,1.199 -45.95,1.199 -1.6,0 -2.4,-0.8 -2.4,-2.398 v -9.191 c 0,-1.598 0.4,-2.797 2.4,-2.797 h 7.19 c 16.78,0 20.38,-3.996 20.38,-8.395 0,-5.594 0.8,-45.558 0.8,-51.949 v -17.586 c 0,-13.586 -0.4,-64.34 -0.8,-67.937 -0.8,-7.192 -7.19,-7.594 -17.18,-7.594 h -8.8 c -1.59,0 -2.39,-1.199 -2.39,-2.399 v -8.789 c 0,-2 0.8,-3.199 2.39,-3.199 2.4,0 25.58,1.199 39.17,1.199 17.98,0 38.76,-1.199 41.96,-1.199 2,0 2.4,1.199 2.4,2.797 v 9.594 c 0,1.199 -0.4,1.996 -2.4,1.996 h -5.99 c -11.59,0 -16.39,5.597 -17.19,14.789 -0.4,5.992 -0.4,51.953 -0.4,54.348 v 19.984" /><path
         id="path54"
         style="fill:#ffffff;fill-opacity:1;fill-rule:evenodd;stroke:none"
         d="m 707.066,172.914 c -6.07,0 -11.632,4.805 -11.632,12.899 0,11.886 6.066,27.312 14.668,40.968 12.644,20.489 26.046,30.098 36.671,30.098 8.344,0 12.899,-6.32 12.645,-14.16 0,-16.696 -26.051,-69.805 -52.352,-69.805 z m 3.793,-12.141 c 36.672,0 58.676,50.329 58.676,78.149 0,17.199 -10.117,29.59 -27.062,29.59 -33.637,0 -57.664,-43.246 -57.664,-75.114 0,-19.218 12.14,-32.625 26.05,-32.625" /><path
         id="path56"
         style="fill:#ffffff;fill-opacity:1;fill-rule:evenodd;stroke:none"
         d="m 1127.47,154.359 c 0,2.797 0.4,50.352 0.4,54.348 0.4,8.395 4,9.992 14.79,9.992 h 6.79 c 2,0 2.4,1.199 2.4,2.797 v 9.59 c 0,1.199 -0.8,2 -2.4,2 -3.2,0 -23.58,-1.199 -35.17,-1.199 -18.78,-0.399 -43.56,1.199 -45.95,1.199 -1.6,0 -2.4,-0.801 -2.4,-2.398 v -9.192 c 0,-1.598 0.4,-2.797 2.4,-2.797 h 7.19 c 16.78,0 20.38,-3.996 20.38,-8.394 0,-5.594 0.8,-45.559 0.8,-51.95 V 140.77 c 0,-13.586 -0.4,-64.3403 -0.8,-67.938 -0.8,-7.1914 -7.19,-7.5937 -17.18,-7.5937 h -8.8 c -1.59,0 -2.39,-1.1992 -2.39,-2.3985 v -8.789 c 0,-2 0.8,-3.1992 2.39,-3.1992 2.4,0 25.58,1.1992 39.17,1.1992 17.98,0 38.76,-1.1992 41.96,-1.1992 2,0 2.4,1.1992 2.4,2.7968 v 9.5938 c 0,1.1992 -0.4,1.9961 -2.4,1.9961 h -6 c -11.58,0 -16.38,5.5976 -17.18,14.789 -0.4,5.9922 -0.4,51.9527 -0.4,54.3477 v 19.984" /><path
         id="path58"
         style="fill:#ffffff;fill-opacity:1;fill-rule:evenodd;stroke:none"
         d="m 1218.26,211.504 c 0,7.195 5.99,8.793 11.99,8.793 15.98,0 27.17,-3.598 37.96,-10.391 7.19,-4.797 13.19,-15.586 13.19,-27.574 0,-10.391 -6.8,-41.562 -51.15,-41.562 -5.2,0 -9.2,0.402 -11.99,0.8 z m -32.67,-68.336 c -0.4,-24.375 0,-47.9571 -0.4,-67.5391 0,-8.7891 -4.8,-10.3906 -14.39,-10.3906 h -4.8 c -1.59,0 -2.39,-0.7969 -2.39,-1.9961 v -9.1914 c 0,-2 0.8,-3.1992 2.39,-3.1992 2.8,0 23.18,1.1992 33.17,1.1992 13.19,0 34.77,-1.1992 37.57,-1.1992 2.4,0 3.2,0.8007 3.2,2.7968 v 9.5938 c 0,1.1992 -0.8,1.9961 -2.4,1.9961 h -10.39 c -8,0 -10.39,4.3984 -11.19,9.9922 v 43.1605 9.589 c 2.8,0.801 6.39,0.801 10.39,0.801 16.78,0 22.78,-8.793 37.16,-33.5701 3.6,-5.9921 21.18,-38.3632 28.78,-43.957 6.79,0.3984 16.38,0.7969 25.57,0.7969 4,0 8.8,-0.3985 12.39,-0.3985 4,-0.3984 7.2,-0.8007 8,-0.8007 1.59,0 2.39,1.1992 2.39,2.7968 v 7.9961 c 0,2.3946 -0.4,3.5938 -1.99,3.5938 -7.2,0 -12.39,0.4023 -17.99,4.3984 -7.59,5.5938 -16.78,17.5821 -22.38,25.5742 -16.38,23.1801 -24.38,35.5661 -33.57,37.5661 v 0.801 c 31.57,11.188 47.16,27.172 47.16,54.746 0,9.196 -5.2,20.781 -13.99,29.176 -9.99,8.793 -27.97,15.586 -51.95,15.586 -5.2,0 -39.96,-1.199 -44.76,-1.199 -7.19,0 -31.97,1.199 -33.97,1.199 -1.6,0 -2.4,-0.801 -2.4,-2 v -9.59 c 0,-1.598 0.4,-2.797 1.6,-2.797 h 4 c 11.19,0 14.79,-4.394 15.19,-12.39 v -38.364 -24.777" /><path
         id="path60"
         style="fill:#ffffff;fill-opacity:1;fill-rule:evenodd;stroke:none"
         d="m 1490.3,106.402 c 0,6.793 7.59,8.391 11.59,8.391 h 6.79 c 1.2,0 2,1.199 2,2.398 v 9.59 c 0,1.199 -0.8,2 -2.4,2 -1.6,0 -19.58,-0.801 -34.37,-0.801 -21.58,0 -41.16,0.801 -43.56,0.801 -1.6,0 -2,-0.801 -2,-2 v -9.59 c 0,-1.199 0.4,-2 2,-2 h 9.59 c 10.39,0 19.58,-2.796 19.58,-11.988 V 88.418 c 0,-7.9922 -0.8,-13.1875 -5.99,-17.1836 -6.4,-5.1953 -19.18,-8.793 -33.17,-8.793 -11.19,0 -27.18,5.9961 -38.37,17.9844 -15.58,16.3867 -24.37,39.1642 -24.37,69.9332 0,17.985 8.79,39.164 20.78,52.356 14.78,15.984 30.37,20.379 42.76,20.379 18.38,0 29.57,-7.992 40.36,-19.18 9.59,-9.594 16.39,-21.98 19.18,-28.375 1.2,-3.199 2,-3.598 3.2,-3.199 l 7.59,2.398 c 1.2,0.399 1.6,1.2 1.6,3.2 -0.8,7.191 -5.99,44.359 -5.99,46.355 0,2.797 -0.8,4.398 -4.4,4.398 -3.19,0 -4.39,-1.199 -5.19,-2.8 l -2,-3.594 c -0.8,-1.199 -2.4,-1.199 -5.6,1.598 -7.59,5.593 -26.37,12.789 -45.55,12.789 -28.38,0 -52.76,-8.395 -71.54,-24.379 -19.18,-16.785 -29.57,-41.164 -29.57,-65.539 0,-31.172 7.99,-52.7543 23.98,-70.3363 18.78,-20.7813 50.75,-29.1719 71.53,-29.1719 25.58,0 47.16,5.5938 68.34,15.9844 2.8,1.1992 4.39,2.3984 4.39,4.3945 0,2 -1.19,4.3946 -1.19,7.9922 v 30.7731" /><path
         id="path62"
         style="fill:#ffffff;fill-opacity:1;fill-rule:evenodd;stroke:none"
         d="m 1563.57,154.359 c 0,2.797 0.4,50.352 0.4,54.348 0.4,8.395 3.99,9.992 14.78,9.992 h 6.8 c 2,0 2.4,1.199 2.4,2.797 v 9.59 c 0,1.199 -0.8,2 -2.4,2 -3.2,0 -23.58,-1.199 -35.17,-1.199 -18.78,-0.399 -43.56,1.199 -45.96,1.199 -1.6,0 -2.4,-0.801 -2.4,-2.398 v -9.192 c 0,-1.598 0.4,-2.797 2.4,-2.797 h 7.2 c 16.78,0 20.38,-3.996 20.38,-8.394 0,-5.594 0.8,-45.559 0.8,-51.95 V 140.77 c 0,-13.586 -0.4,-64.3403 -0.8,-67.938 -0.8,-7.1914 -7.2,-7.5937 -17.19,-7.5937 h -8.79 c -1.6,0 -2.4,-1.1992 -2.4,-2.3985 v -8.789 c 0,-2 0.8,-3.1992 2.4,-3.1992 2.4,0 25.58,1.1992 39.16,1.1992 17.99,0 38.77,-1.1992 41.97,-1.1992 1.99,0 2.39,1.1992 2.39,2.7968 v 9.5938 c 0,1.1992 -0.4,1.9961 -2.39,1.9961 h -6 c -11.59,0 -16.38,5.5976 -17.18,14.789 -0.4,5.9922 -0.4,51.9527 -0.4,54.3477 v 19.984" /><path
         id="path64"
         style="fill:#ffffff;fill-opacity:1;fill-rule:evenodd;stroke:none"
         d="m 1779.55,150.359 c 0,16.387 -0.8,41.567 1.2,59.946 0.8,5.597 2.8,8.394 12.79,8.394 h 4 c 1.59,0 2.39,1.199 2.39,2.797 v 8.395 c 0,2.394 -0.8,3.195 -2.79,3.195 -2.8,0 -16.79,-1.199 -25.18,-1.199 -12.79,0 -29.97,1.199 -32.77,1.199 -2,0 -2.8,-0.801 -2.8,-2 v -9.59 c 0,-1.996 0.8,-2.797 2.8,-2.797 h 6.79 c 6.8,0 12.79,-2.398 14.79,-7.195 2,-4.793 3.2,-27.973 3.2,-37.566 0.8,-12.786 1.2,-25.176 1.2,-47.954 V 99.6094 h -1.6 c -4.8,5.1956 -41.96,51.9496 -49.16,60.3436 -8.39,9.992 -54.35,67.938 -55.55,69.535 -1.6,2.399 -3.99,3.2 -9.59,3.2 -4.79,0 -13.19,-0.801 -19.58,-0.801 -4.4,0 -10.79,0.398 -15.99,0.801 -5.19,0 -9.59,0.398 -10.39,0.398 -1.6,0 -2.39,-1.199 -2.39,-2.398 v -9.59 c 0,-1.598 0.79,-2.399 2.39,-2.399 h 3.6 c 11.19,0 21.18,-6.793 21.18,-21.179 v -41.961 c 0,-45.161 -0.8,-73.5356 -1.2,-78.3324 -1.2,-9.1914 -7.59,-11.9883 -11.59,-11.9883 h -9.19 c -1.2,0 -1.6,-0.3985 -1.6,-1.1992 V 53.6484 c 0,-1.9961 0.4,-2.7968 1.2,-2.7968 3.2,0 21.18,1.1992 26.78,1.1992 11.59,0 27.57,-1.1992 30.37,-1.1992 2,0 2,0.8007 2,2.3984 v 9.5898 c 0,1.6016 0,2.3985 -2,2.3985 h -8.39 c -4,0 -8.4,4.3984 -9.59,13.5859 -0.8,3.6016 -2.4,43.5628 -2.4,67.5388 v 54.75 h 0.8 c 6.39,-7.191 38.76,-50.351 48.35,-61.543 4.4,-5.195 21.58,-25.578 39.97,-47.5544 16.38,-19.582 29.97,-35.9687 32.77,-38.7656 1.59,-1.1992 5.59,-3.9961 9.19,-3.9961 4.79,0 5.99,3.9961 5.99,7.5938 v 93.5113" /><path
         id="path66"
         style="fill:#ffffff;fill-opacity:1;fill-rule:nonzero;stroke:none"
         d="M 797.758,254.863 H 775.25 c -1.266,0 -1.887,1.235 -1.379,3.004 l 1.012,4.301 c 0.504,1.77 2.254,5.82 4.277,5.82 h 22 c 7.59,21.754 14.945,39.45 28.352,54.371 7.082,8.094 20.992,17.2 37.429,17.2 14.668,0 22.762,-8.852 22.762,-14.922 0,-7.84 -5.058,-11.633 -10.117,-11.633 -8.094,0 -10.367,4.551 -11.125,10.113 -0.254,2.531 -2.785,7.336 -10.371,7.336 -23.52,0 -28.602,-33.406 -36.949,-61.734 0,0 35.148,-0.942 63.839,-0.942 30.895,0 47.45,1.102 50.758,1.106 3.313,0 3.68,-1.106 3.68,-2.578 v -8.461 c 0,-1.836 -0.367,-3.309 -2.941,-3.309 H 918.82 c -10.3,0 -15.449,-3.308 -15.449,-9.562 0,-2.946 0.367,-7.36 1.473,-12.508 2.207,-13.242 15.816,-57.012 22.433,-77.61 4.414,-13.976 25.75,-77.2456 34.211,-99.6792 8.457,17.2851 37.149,93.0582 40.092,101.5152 3.68,9.934 17.66,52.235 23.17,68.418 2.95,9.196 5.15,15.817 5.15,20.965 0,4.414 -2.57,8.461 -11.77,8.461 h -9.56 c -1.47,0 -1.84,1.106 -1.84,3.309 v 8.461 c 0,1.84 0.37,2.578 2.21,2.574 3.31,0 20.23,-1.102 43.4,-1.102 26.85,0 36.05,1.102 39.36,1.106 2.2,0 2.57,-0.738 2.57,-2.578 v -9.196 c 0,-1.468 -0.37,-2.574 -2.57,-2.574 h -9.93 c -12.14,0 -19.13,-5.887 -26.12,-14.344 -9.56,-11.773 -38.99,-87.175 -45.24,-102.625 C 1005.99,125.43 958.543,8.46094 956.703,4.78125 955.234,1.83984 953.395,0 951.555,0 948.613,0 947.141,3.67969 945.305,8.46094 933.531,42.3008 903.738,126.164 898.957,139.406 l -3.68,12.504 c -8.828,26.117 -26.117,79.453 -30.894,90.488 -3.68,8.457 -7.36,12.137 -15.082,12.137 l -34.207,0.328 C 808.52,234.375 796.887,191.102 784.242,158.73 768.813,119.273 750.855,91.2031 723.797,91.2031 c -10.117,0 -18.211,6.8282 -18.211,14.9219 0,5.816 4.301,10.875 10.875,10.875 7.336,0 11.129,-7.082 11.887,-11.383 0.507,-2.527 2.277,-4.297 4.3,-4.297 12.137,0 25.797,21.243 39.454,68.032 l 25.656,85.511" /><path
         id="path68"
         style="fill:#ffffff;fill-opacity:1;fill-rule:nonzero;stroke:none"
         d="m 1826.42,470.496 c 0.5,0.356 0.35,0.359 1.56,0.223 6.22,-0.692 28.9,-2.821 72.8,-2.821 h 15.98 c 13.07,0 27.13,0.536 42.36,1.168 7.66,0.215 54.6,-0.367 64.19,-0.367 8.79,0 35.97,1.199 38.77,1.199 1.6,0 2.79,-0.8 2.79,-2.796 v -8.793 c 0,-1.598 -0.4,-2.797 -2.79,-2.797 h -6 c -7.19,0 -7.59,-4.395 -5.99,-6.793 2.4,-3.598 35.57,-56.75 41.96,-66.34 5.99,9.988 39.16,58.348 40.76,61.543 3.2,6.394 3.6,11.59 -5.19,11.59 h -6.4 c -2,0 -2.8,1.199 -2.8,2.797 v 8.793 c 0,1.597 0.8,2.796 2.8,2.796 2.4,0 22.38,-1.199 34.37,-1.199 7.2,0 21.18,1.199 23.58,1.199 2,0 2.8,-0.8 2.8,-3.199 v -8.39 c 0,-1.996 -0.8,-2.797 -2.4,-2.797 h -4 c -6.39,0 -10.79,-1.199 -14.38,-3.199 -6,-3.196 -52.36,-68.336 -61.55,-82.325 v -33.566 c 0.4,-9.992 0,-20.781 0.8,-25.578 0.8,-8.391 7.2,-8.793 14.39,-8.793 h 5.19 c 2,0 2.8,-0.797 2.8,-1.996 v -9.594 c 0,-1.598 -0.8,-2.797 -3.2,-2.797 -2.39,0 -24.77,1.199 -37.96,1.199 -8.79,0 -31.97,-1.199 -34.37,-1.199 -2,0 -2.8,0.801 -2.8,3.199 v 8.789 c 0,1.2 0.8,2.399 2.4,2.399 h 6 c 12.78,0 15.18,2.398 15.58,7.996 0.4,3.594 0.4,17.98 0.4,41.558 v 14.387 c -3.6,7.196 -52.35,78.731 -58.75,84.723 -3.38,3.383 -9.05,4.476 -12.65,4.73 2.38,-10.832 5.6,-25.023 6.87,-31.906 0.4,-1.598 -0.39,-2.394 -1.99,-3.195 l -6.8,-2 c -2.4,-0.797 -3.59,-0.399 -4.39,1.601 -4.8,9.989 -11.59,23.176 -19.99,30.77 -9.99,3.598 -39.22,3.996 -46.41,3.996 v -67.137 c 0,-41.961 0,-71.933 0.4,-75.133 0.8,-6.394 2.79,-10.39 9.19,-10.39 h 15.18 c 2,0 2.8,-1.199 2.8,-3.598 v -8.39 c 0,-1.2 -0.8,-2.399 -2.8,-2.399 -2.79,0 -27.57,1.199 -40.76,1.199 -11.19,0 -37.17,-1.199 -40.36,-1.199 -2.4,0 -3.2,1.199 -3.2,3.598 v 7.992 c 0,2 0.8,2.797 2.4,2.797 h 15.98 c 6,0 8.8,3.199 9.19,6.394 1.2,15.188 1.2,36.368 1.2,60.348 v 85.918 c -7.59,0 -30.03,0.402 -44.82,-3.594 -9.99,-7.594 -18.38,-20.383 -23.57,-30.773 -0.8,-1.598 -2,-2.797 -3.6,-2 l -7.19,2.801 c -2,0.796 -2,2.394 -1.6,3.996 2.31,7.257 9.25,31.902 12.5,43.996 0.17,0.636 0.23,1.011 0.72,1.359" /><path
         id="path70"
         style="fill:#ffffff;fill-opacity:1;fill-rule:nonzero;stroke:none"
         d="m 1874.45,154.359 v -19.984 c 0,-2.395 0,-48.3555 0.4,-54.3477 0.8,-9.1914 5.59,-14.789 17.18,-14.789 h 4.61 c 6.8,0 13.19,3.9961 16.39,8.3945 2.79,3.1953 23.18,51.1522 32.77,71.1332 2.79,5.593 26.37,59.945 28.77,66.738 0.8,2.398 3.2,6.797 0.4,7.996 -0.8,0.797 -2,2.797 -1.6,3.992 -0.4,0.801 0.4,2 4,2.801 7.59,1.199 18.78,8.391 22.38,11.59 0.8,1.597 2.4,2.797 4.79,2.797 2.4,0 3.2,-1.602 4,-4.399 5.59,-15.984 25.98,-73.133 31.17,-89.117 6,-19.98 23.18,-67.1367 25.98,-71.1367 5.19,-7.1914 11.99,-10.789 18.78,-10.789 h 7.59 c 1.6,0 2,-1.1992 2,-2.3985 v -8.3906 c 0,-1.1992 -0.4,-3.5976 -2.8,-3.5976 -4.79,0 -25.97,1.1992 -35.16,1.1992 -7.6,0 -31.17,-1.1992 -36.37,-1.1992 -2.8,0 -3.2,2 -3.2,3.5976 v 8.3906 c 0,1.1993 0.4,2.3985 2,2.3985 h 6.4 c 4.79,0 6.39,3.5976 6.39,6.793 -1.6,7.996 -12.39,39.9647 -15.59,49.1567 h -64.34 c -1.6,-4.797 -14.38,-37.9653 -15.98,-42.7622 -2.4,-7.9922 -1.2,-13.1875 7.19,-13.1875 h 9.99 c 2.4,0 2.8,-1.1992 2.8,-2.7969 v -8.793 c 0,-1.5976 -0.4,-2.7968 -2.4,-2.7968 -3.2,0 -24.38,1.1992 -30.77,1.1992 -4.97,0 -53.95,0 -66.16,0 -13.58,0 -36.76,-1.1992 -39.16,-1.1992 -1.6,0 -2.4,1.1992 -2.4,3.1992 v 8.789 c 0,1.1993 0.8,2.3985 2.4,2.3985 h 8.79 c 9.99,0 16.39,0.4023 17.19,7.5937 0.4,3.5977 0.8,54.352 0.8,67.938 v 17.585 c 0,6.391 -0.8,46.356 -0.8,51.95 0,4.398 -3.6,8.394 -20.39,8.394 h -7.19 c -2,0 -2.4,1.199 -2.4,2.797 v 9.192 c 0,1.597 0.8,2.398 2.4,2.398 2.4,0 27.18,-1.598 45.96,-1.199 11.59,0 31.97,1.199 35.17,1.199 1.6,0 2.39,-0.801 2.39,-2 v -9.59 c 0,-1.598 -0.39,-2.797 -2.39,-2.797 h -6.8 c -10.79,0 -14.38,-1.597 -14.78,-9.992 0,-3.996 -0.4,-51.551 -0.4,-54.348 z m 82.94,-20.382 h 54.35 c -1.6,5.593 -20.38,65.539 -21.18,68.738 -0.8,2.394 -1.2,3.996 -2.4,3.996 -1.2,0 -2,-1.199 -3.2,-4.398 -1.2,-3.196 -25.57,-64.34 -27.57,-68.336" /><path
         id="path72"
         style="fill:#ffffff;fill-opacity:1;fill-rule:nonzero;stroke:none"
         d="m 1144.9,467.102 v -9.192 c 0,-1.597 -1.2,-2.398 -2.8,-2.398 h -9.19 c -5.2,0 -11.19,-0.801 -11.19,-5.996 0,-9.192 6.79,-24.778 17.58,-58.344 3.2,-9.992 17.99,-56.352 20.38,-62.746 h 1.2 c 2.4,8.394 21.98,57.949 23.98,63.941 15.19,44.363 20.38,55.153 20.38,59.149 0,1.996 -1.6,3.996 -8.39,3.996 h -4.4 c -1.6,0 -2.39,0.801 -2.39,2.797 v 9.191 c 0,1.199 0.79,2.398 2.39,2.398 2.4,0 23.18,-1.199 32.37,-1.199 6.66,0 55.26,0 61.09,0 l 89.52,0.399 c 4,0 9.19,0.8 10.79,0.8 0.8,0 1.6,-0.8 2.4,-5.593 0.8,-3.598 11.99,-37.965 12.79,-40.766 0.39,-1.598 0.39,-2.394 -0.41,-2.797 l -6.39,-2.797 c -0.8,-0.398 -2.4,-0.398 -3.6,1.602 -0.79,1.195 -19.98,23.574 -26.77,29.969 -4.8,4.398 -11.19,5.996 -15.19,5.996 l -42.36,0.801 v -67.942 c 2.4,0 25.98,1.199 29.18,2 10.39,2.797 14.38,8.391 14.38,20.781 0,1.598 0.4,1.996 2,1.996 l 8.79,-0.398 c 1.6,0 2.8,-0.801 2.4,-2.398 -0.8,-3.594 -0.8,-24.778 -0.8,-28.372 0,-8.792 1.2,-21.183 1.6,-26.378 0,-1.598 -0.8,-1.997 -2,-1.997 l -8.39,-0.8 c -1.2,0 -2,0 -2.4,1.597 -2,9.993 -4.4,16.387 -14.79,18.786 -11.98,2.796 -25.97,2.796 -29.97,2.796 v -13.586 c 0,-13.988 0.8,-37.168 0.8,-42.363 0,-18.781 11.59,-19.98 28.77,-19.98 17.59,0 28.78,0.398 42.37,11.187 3.19,2.399 17.18,20.383 21.18,26.778 1.99,2.796 3.99,3.195 5.19,2.398 l 6.4,-3.598 c 0.8,-0.398 1.59,-1.597 1.19,-2.797 l -14.38,-42.363 c -0.8,-1.996 -2.8,-3.996 -4.4,-3.996 -2.8,0 -23.98,1.199 -107.9,1.199 -7.19,0 -29.17,-1.199 -33.97,-1.199 -2,0 -2.4,1.199 -2.4,2.797 v 9.191 c 0,1.602 0.8,2.399 2.8,2.399 h 3.6 c 18.78,0 19.98,1.597 19.98,7.195 v 60.344 24.777 c 0,21.18 -0.4,47.156 -0.8,51.153 -1.2,8.394 -3.6,9.992 -19.58,9.992 h -3.14 -0.86 -5.54 c -7.59,0 -13.18,-2.399 -16.78,-5.996 -7.59,-7.59 -29.17,-59.946 -33.17,-70.336 -3.6,-8.391 -36.37,-86.719 -39.56,-91.914 -1.2,-2 -3.2,-3.2 -6.4,-3.2 -3.2,0 -5.19,2.801 -6.39,5.997 -8.79,23.578 -29.97,81.527 -33.17,90.316 l -2.8,8.793 c -6.79,18.383 -18.78,54.75 -21.58,58.746 -3.2,4.395 -6.39,7.594 -11.59,7.594 h -4 c -1.59,0 -1.99,1.199 -1.99,2.398 v 9.988 c 0,1.2 0.8,2 2.39,2 2,0 23.98,-1.199 34.37,-1.199 9.59,0 33.97,1.199 36.37,1.199 2.4,0 3.2,-0.8 3.2,-2.796" /></g></g></svg>